<svg width="169" height="30" viewBox="0 0 169 30" fill="none" xmlns="http://www.w3.org/2000/svg">
<path d="M10.3813 25.6552H14.065V4.49684H8.7069C3.31836 4.49684 0.487099 7.26721 0.487099 11.3467C0.487099 14.6041 2.03973 16.5221 4.8101 18.5009L0 25.6552H3.98812L9.34621 17.6485L7.48915 16.4003C5.23631 14.8781 4.14034 13.6908 4.14034 11.1336C4.14034 8.88073 5.72341 7.35855 8.73734 7.35855H10.3813V25.6552ZM81.4064 25.9596C83.0808 25.9596 84.2681 25.6552 85.151 25.0159V22.0628C84.2377 22.7022 83.1417 23.0979 81.6195 23.0979C79.0318 23.0979 77.9663 21.0886 77.9663 17.9225C77.9663 14.6041 79.2754 12.8993 81.65 12.8993C83.0504 12.8993 84.4204 13.3864 85.151 13.8431V10.7682C84.3899 10.342 83.0504 10.0376 81.2542 10.0376C76.6268 10.0376 74.2217 13.3559 74.2217 18.0138C74.2217 23.1284 76.5659 25.9596 81.4064 25.9596ZM58.7563 24.6201V21.6671C57.6299 22.4282 55.7424 23.0979 53.9767 23.0979C51.3281 23.0979 50.3234 21.8497 50.1712 19.2925H58.9086V17.3745C58.9086 12.0469 56.5644 10.0376 52.9416 10.0376C48.5272 10.0376 46.4266 13.4168 46.4266 18.0443C46.4266 23.3719 49.0448 25.9596 53.6722 25.9596C55.986 25.9596 57.6908 25.3508 58.7563 24.6201ZM25.5727 10.342V16.4003H20.7322V10.342H17.1094V25.6552H20.7322V19.262H25.5727V25.6552H29.1955V10.342H25.5727ZM45.5438 22.7935H43.9303V10.342H33.3663V11.6511C33.3663 15.3957 33.1227 20.2362 31.8441 22.7935H30.7177V29.1562H34.0665V25.6552H42.195V29.1562H45.5438V22.7935ZM70.3249 25.6552H74.4348L68.6201 17.405L73.7346 10.342H70.0814L64.9668 17.405V10.342H61.344V25.6552H64.9668V18.1356L70.3249 25.6552ZM52.8807 12.8993C54.6769 12.8993 55.2249 14.391 55.2249 16.309V16.6134H50.1712C50.2625 14.1779 51.1454 12.8993 52.8807 12.8993ZM40.3074 22.7935H35.1929C36.1976 20.4798 36.4715 16.309 36.4715 13.6604V13.2037H40.3074V22.7935Z" fill="black"/>
<path d="M126.163 4.49684V25.6552H138.189V22.7935H129.847V16.4612H136.788V13.5995H129.847V7.35855H138.036V4.49684H126.163Z" fill="black"/>
<path d="M154.722 22.7935H153.109V10.342H142.545V11.6511C142.545 15.3957 142.301 20.2362 141.023 22.7935H139.896V29.1562H143.245V25.6552H151.374V29.1562H154.722V22.7935ZM149.486 22.7935H144.372C145.376 20.4798 145.65 16.309 145.65 13.6604V13.2037H149.486V22.7935Z" fill="black"/>
<path d="M167.994 15.213C167.994 11.4989 166.107 10.0985 162.271 10.0985C159.866 10.0985 157.978 10.8596 156.882 11.4989V14.5128C157.857 13.7822 159.988 12.9906 161.845 12.9906C163.58 12.9906 164.372 13.5995 164.372 15.2435V16.0959H163.793C158.252 16.0959 155.786 17.9225 155.786 21.0278C155.786 24.133 157.674 25.8683 160.475 25.8683C162.606 25.8683 163.519 25.1681 164.219 24.4375H164.372C164.402 24.8332 164.524 25.3508 164.646 25.6552H168.177C168.055 24.407 167.994 23.1588 167.994 21.9106V15.213ZM164.372 22.002C163.915 22.6717 163.063 23.2197 161.784 23.2197C160.262 23.2197 159.501 22.3064 159.501 20.9364C159.501 19.1403 160.749 18.5009 163.854 18.5009H164.372V22.002Z" fill="black"/>
<path d="M115.932 22.6353C113.632 24.6652 110.632 25.8895 107.359 25.8895C100.493 25.8895 95.3482 20.5718 95.3482 14.4934C95.3482 8.77759 99.9057 4.11037 105.556 4.11037C110.889 4.11037 114.736 8.24489 114.736 12.7215C114.736 16.9177 111.426 20.3214 107.359 20.3214C103.638 20.3214 101.012 17.5027 101.012 14.4934C101.012 11.7925 103.101 9.67851 105.558 9.67851C107.733 9.67851 109.075 11.2635 109.075 12.7215C109.075 13.9869 108.185 14.7513 107.359 14.7513C107.067 14.7513 106.956 14.6897 106.839 14.6168C107.105 14.2747 107.237 13.8299 107.17 13.3663C107.038 12.471 106.209 11.8523 105.318 11.985C104.554 12.099 104.069 12.6187 103.83 13.0037C103.558 13.4355 103.413 13.9551 103.413 14.4934C103.413 16.641 105.415 18.0298 107.359 18.0298C110.199 18.0317 112.335 15.5513 112.335 12.7215C112.335 9.25796 109.333 6.40005 105.558 6.40005C101.173 6.40005 97.7515 10.1122 97.7515 14.4934C97.7515 19.4578 101.984 23.5979 107.361 23.5979C113.305 23.5979 117.999 18.6485 117.999 12.7196C117.999 6.34585 112.603 0.831909 105.558 0.831909C98.0638 0.831909 92.0898 7.01126 92.0898 14.4934C92.0898 22.4821 98.7961 29.168 107.361 29.168C111.458 29.168 115.216 27.6297 118.084 25.0989L115.932 22.6353ZM106.67 14.4579C106.67 14.4541 106.668 14.456 106.67 14.4579V14.4579Z" fill="black"/>
</svg>
